<svg xmlns="http://www.w3.org/2000/svg" viewBox="0 0 595.28 841.89"><defs><style>.cls-1{fill:#fff;}.cls-2{font-size:9.5px;}.cls-11,.cls-112,.cls-15,.cls-2,.cls-50,.cls-51,.cls-59{fill:#443422;}.cls-11,.cls-2,.cls-51{font-family:WorkSans-Regular, Work Sans;}.cls-3{letter-spacing:-0.01em;}.cls-4{letter-spacing:-0.03em;}.cls-5{letter-spacing:-0.02em;}.cls-6{letter-spacing:-0.01em;}.cls-7{letter-spacing:-0.02em;}.cls-8{letter-spacing:-0.03em;}.cls-9{letter-spacing:-0.05em;}.cls-10{letter-spacing:-0.01em;}.cls-11,.cls-28,.cls-59{font-size:12.61px;}.cls-12{letter-spacing:-0.03em;}.cls-13{letter-spacing:-0.02em;}.cls-14{letter-spacing:-0.01em;}.cls-15{font-size:11.64px;}.cls-112,.cls-144,.cls-148,.cls-15,.cls-153,.cls-157,.cls-59{font-family:WorkSans-Light, Work Sans;}.cls-16{letter-spacing:-0.01em;}.cls-17{letter-spacing:-0.01em;}.cls-18{letter-spacing:-0.01em;}.cls-19{letter-spacing:-0.02em;}.cls-20{letter-spacing:-0.02em;}.cls-21{letter-spacing:-0.01em;}.cls-22{letter-spacing:-0.01em;}.cls-23{letter-spacing:-0.01em;}.cls-24{letter-spacing:0em;}.cls-25{letter-spacing:-0.02em;}.cls-26{letter-spacing:-0.02em;}.cls-27{letter-spacing:0em;}.cls-158,.cls-28{fill:#d9b792;}.cls-28{font-family:WorkSans-Medium, Work Sans;}.cls-29{letter-spacing:-0.01em;}.cls-30{letter-spacing:0em;}.cls-31{letter-spacing:0em;}.cls-32{letter-spacing:-0.01em;}.cls-33{letter-spacing:-0.02em;}.cls-34{letter-spacing:-0.03em;}.cls-35{letter-spacing:-0.03em;}.cls-36{letter-spacing:0em;}.cls-37{letter-spacing:-0.02em;}.cls-38{letter-spacing:0em;}.cls-39{letter-spacing:-0.07em;}.cls-40{letter-spacing:-0.01em;}.cls-41{letter-spacing:-0.01em;}.cls-42{letter-spacing:-0.01em;}.cls-43{letter-spacing:-0.01em;}.cls-44{letter-spacing:-0.04em;}.cls-45{letter-spacing:-0.03em;}.cls-46{letter-spacing:-0.02em;}.cls-47{letter-spacing:-0.01em;}.cls-48{letter-spacing:-0.07em;}.cls-49{letter-spacing:-0.02em;}.cls-51{font-size:20.12px;}.cls-52{letter-spacing:-0.01em;}.cls-53{letter-spacing:-0.04em;}.cls-54{letter-spacing:-0.02em;}.cls-55{letter-spacing:0em;}.cls-56{letter-spacing:-0.01em;}.cls-159,.cls-57,.cls-58{fill:none;stroke:#443422;stroke-miterlimit:10;}.cls-159,.cls-57{stroke-width:0.5px;}.cls-57{opacity:0.5;}.cls-60{letter-spacing:-0.03em;}.cls-61{letter-spacing:-0.01em;}.cls-62{letter-spacing:0em;}.cls-63{letter-spacing:-0.02em;}.cls-64{letter-spacing:-0.04em;}.cls-65{letter-spacing:-0.02em;}.cls-66{letter-spacing:-0.02em;}.cls-67{letter-spacing:-0.03em;}.cls-68{letter-spacing:-0.04em;}.cls-69{letter-spacing:-0.02em;}.cls-70{letter-spacing:-0.01em;}.cls-71{letter-spacing:-0.01em;}.cls-72{letter-spacing:-0.04em;}.cls-73{letter-spacing:-0.05em;}.cls-74{letter-spacing:-0.01em;}.cls-75{letter-spacing:-0.01em;}.cls-76{letter-spacing:-0.08em;}.cls-77{letter-spacing:-0.01em;}.cls-78{letter-spacing:-0.02em;}.cls-79{letter-spacing:0em;}.cls-80{letter-spacing:-0.02em;}.cls-81{letter-spacing:-0.02em;}.cls-82{letter-spacing:-0.02em;}.cls-83{letter-spacing:-0.09em;}.cls-84{letter-spacing:0em;}.cls-85{letter-spacing:-0.01em;}.cls-86{letter-spacing:-0.03em;}.cls-87{letter-spacing:-0.03em;}.cls-88{letter-spacing:0em;}.cls-89{letter-spacing:0em;}.cls-90{letter-spacing:-0.02em;}.cls-91{letter-spacing:0em;}.cls-92{letter-spacing:-0.02em;}.cls-93{letter-spacing:-0.02em;}.cls-94{letter-spacing:0em;}.cls-95{letter-spacing:0em;}.cls-96{letter-spacing:-0.03em;}.cls-97{letter-spacing:-0.02em;}.cls-98{letter-spacing:-0.02em;}.cls-99{letter-spacing:-0.03em;}.cls-100{letter-spacing:-0.01em;}.cls-101{letter-spacing:-0.03em;}.cls-102{letter-spacing:-0.02em;}.cls-103{letter-spacing:-0.01em;}.cls-104{letter-spacing:0em;}.cls-105{letter-spacing:-0.01em;}.cls-106{letter-spacing:-0.02em;}.cls-107{letter-spacing:-0.04em;}.cls-108{letter-spacing:-0.04em;}.cls-109{letter-spacing:-0.05em;}.cls-110{letter-spacing:0.01em;}.cls-111{fill:#edceac;}.cls-112,.cls-144,.cls-148,.cls-153,.cls-157{font-size:10px;}.cls-113{letter-spacing:-0.01em;}.cls-114{letter-spacing:-0.03em;}.cls-115,.cls-148{letter-spacing:-0.03em;}.cls-116{letter-spacing:-0.01em;}.cls-117{letter-spacing:-0.02em;}.cls-118{letter-spacing:0em;}.cls-119{letter-spacing:-0.02em;}.cls-120{letter-spacing:-0.01em;}.cls-121{letter-spacing:0em;}.cls-122{letter-spacing:-0.01em;}.cls-123{letter-spacing:-0.02em;}.cls-124{letter-spacing:-0.01em;}.cls-125{letter-spacing:0.01em;}.cls-126{letter-spacing:0.03em;}.cls-127{letter-spacing:0.01em;}.cls-128{letter-spacing:0.01em;}.cls-129{letter-spacing:0.03em;}.cls-130{letter-spacing:-0.03em;}.cls-131,.cls-144{letter-spacing:-0.01em;}.cls-132{letter-spacing:-0.02em;}.cls-133{letter-spacing:-0.08em;}.cls-134{letter-spacing:-0.03em;}.cls-135{letter-spacing:-0.03em;}.cls-136{letter-spacing:-0.02em;}.cls-137{letter-spacing:-0.02em;}.cls-138{letter-spacing:-0.02em;}.cls-139{letter-spacing:-0.01em;}.cls-140{letter-spacing:0em;}.cls-141{letter-spacing:-0.01em;}.cls-142{letter-spacing:-0.05em;}.cls-143{letter-spacing:-0.01em;}.cls-144,.cls-148,.cls-153,.cls-157{fill:#211915;}.cls-145{letter-spacing:-0.01em;}.cls-146{letter-spacing:-0.02em;}.cls-147{letter-spacing:-0.04em;}.cls-149{letter-spacing:-0.05em;}.cls-150{letter-spacing:-0.02em;}.cls-151{letter-spacing:-0.06em;}.cls-152{letter-spacing:-0.03em;}.cls-153{letter-spacing:-0.01em;}.cls-154{letter-spacing:-0.05em;}.cls-155{letter-spacing:0.01em;}.cls-156{letter-spacing:-0.03em;}.cls-157{letter-spacing:-0.04em;}</style></defs><title>CV-2018</title><g id="Capa_3" data-name="Capa 3"><rect class="cls-1" width="595.28" height="841.89"/></g><g id="Capa_1" data-name="Capa 1"><text class="cls-2" transform="translate(57.47 297.38)">C/ <tspan class="cls-3" x="13.92" y="0">M</tspan><tspan x="21.97" y="0">a</tspan><tspan class="cls-4" x="27.35" y="0">r</tspan><tspan x="30.94" y="0">tín Carpena, 5</tspan><tspan x="0" y="11.4">CP:</tspan><tspan class="cls-5" x="15.12" y="11.4"> </tspan><tspan x="18.17" y="11.4">18100 - G</tspan><tspan class="cls-6" x="61.81" y="11.4">r</tspan><tspan x="65.56" y="11.4">anad</tspan><tspan class="cls-7" x="88.18" y="11.4">a</tspan><tspan x="93.34" y="11.4"> </tspan><tspan class="cls-8" x="96.58" y="11.4">(</tspan><tspan x="99.63" y="11.4">S</tspan><tspan class="cls-9" x="105.72" y="11.4">P</tspan><tspan x="111.06" y="11.4">AI</tspan><tspan class="cls-10" x="120.14" y="11.4">N</tspan><tspan x="126.99" y="11.4">)</tspan></text><text class="cls-11" transform="translate(235.69 113.87)"><tspan class="cls-12">W</tspan><tspan x="11.69" y="0">or</tspan><tspan class="cls-13" x="24.5" y="0">k</tspan><tspan x="31.37" y="0" xml:space="preserve"> Experience</tspan></text><text class="cls-11" transform="translate(279.82 146.02)">GRAPHIC/UX/F<tspan class="cls-14" x="90.55" y="0">R</tspan><tspan x="98.86" y="0">ONTEND DESIGNER</tspan></text><text class="cls-15" transform="translate(279.82 181.19)">G<tspan class="cls-16" x="8.17" y="0">r</tspan><tspan x="12.42" y="0">aphic design, b</tspan><tspan class="cls-17" x="93.81" y="0">r</tspan><tspan x="98.06" y="0">anding, U</tspan><tspan class="cls-18" x="148.41" y="0">X</tspan><tspan x="154.88" y="0" xml:space="preserve"> design,</tspan><tspan class="cls-19" x="196.17" y="0"> </tspan><tspan x="199.59" y="0">f</tspan><tspan class="cls-20" x="203.77" y="0">r</tspan><tspan x="207.89" y="0">o</tspan><tspan class="cls-21" x="214.75" y="0">n</tspan><tspan x="221.56" y="0">tend </tspan><tspan x="0" y="13.97">design and d</tspan><tspan class="cls-22" x="69.83" y="13.97">e</tspan><tspan class="cls-23" x="76.17" y="13.97">v</tspan><tspan x="81.93" y="13.97">e</tspan><tspan class="cls-24" x="88.44" y="13.97">l</tspan><tspan x="91.58" y="13.97">opme</tspan><tspan class="cls-17" x="123.21" y="13.97">n</tspan><tspan x="130.02" y="13.97">t, poste</tspan><tspan class="cls-25" x="171.33" y="13.97">r</tspan><tspan x="175.53" y="13.97">s and b</tspan><tspan class="cls-20" x="216.15" y="13.97">r</tspan><tspan x="220.27" y="13.97">ochu</tspan><tspan class="cls-20" x="247.34" y="13.97">r</tspan><tspan x="251.46" y="13.97">es </tspan><tspan class="cls-26" x="0" y="27.93">f</tspan><tspan x="3.92" y="27.93">o</tspan><tspan class="cls-20" x="10.79" y="27.93">r</tspan><tspan x="14.91" y="27.93"> </tspan><tspan class="cls-22" x="18.55" y="27.93">e</tspan><tspan class="cls-23" x="24.89" y="27.93">v</tspan><tspan x="30.65" y="27.93">e</tspan><tspan class="cls-21" x="37.16" y="27.93">n</tspan><tspan x="43.97" y="27.93">ts and pac</tspan><tspan class="cls-27" x="101.63" y="27.93">k</tspan><tspan x="107.71" y="27.93">aging.</tspan></text><text class="cls-28" transform="translate(279.82 163.9)"><tspan class="cls-12">F</tspan><tspan class="cls-29" x="7.27" y="0">r</tspan><tspan class="cls-30" x="12.33" y="0">ee</tspan><tspan class="cls-31" x="26.98" y="0">l</tspan><tspan x="30.93" y="0">ance</tspan></text><text class="cls-11" transform="translate(279.82 248.82)">U<tspan class="cls-32" x="9.08" y="0">X</tspan><tspan x="16.53" y="0" xml:space="preserve"> DESIGNER</tspan></text><text class="cls-15" transform="translate(279.82 283.88)">UX, p<tspan class="cls-20" x="28.04" y="0">r</tspan><tspan x="32.16" y="0">oduc</tspan><tspan class="cls-27" x="59.35" y="0">t</tspan><tspan x="63.68" y="0" xml:space="preserve"> and</tspan><tspan class="cls-33" x="87.69" y="0"> </tspan><tspan x="91.11" y="0">f</tspan><tspan class="cls-20" x="95.29" y="0">r</tspan><tspan x="99.41" y="0">o</tspan><tspan class="cls-17" x="106.28" y="0">n</tspan><tspan x="113.09" y="0">tend design in s</tspan><tspan class="cls-22" x="199.54" y="0">e</tspan><tspan class="cls-23" x="205.89" y="0">v</tspan><tspan x="211.65" y="0">e</tspan><tspan class="cls-21" x="218.15" y="0">r</tspan><tspan x="222.4" y="0">a</tspan><tspan class="cls-34" x="228.72" y="0">l</tspan><tspan x="231.54" y="0" xml:space="preserve"> i</tspan><tspan class="cls-21" x="237.84" y="0">n</tspan><tspan x="244.65" y="0">ter</tspan><tspan x="259.94" y="0">-</tspan><tspan x="0" y="13.97">na</tspan><tspan class="cls-35" x="13.28" y="13.97">l</tspan><tspan class="cls-36" x="16.09" y="13.97" xml:space="preserve"> p</tspan><tspan class="cls-20" x="26.83" y="13.97">r</tspan><tspan x="30.95" y="13.97">ojects - ER</tspan><tspan class="cls-37" x="90.87" y="13.97">P</tspan><tspan x="97.43" y="13.97"> </tspan><tspan class="cls-20" x="101.07" y="13.97">r</tspan><tspan x="105.19" y="13.97">eb</tspan><tspan class="cls-21" x="118.79" y="13.97">r</tspan><tspan x="123.04" y="13.97">anding, mobi</tspan><tspan class="cls-38" x="193.01" y="13.97">l</tspan><tspan x="196.16" y="13.97">e apps design, </tspan><tspan x="0" y="27.93">CSS lib</tspan><tspan class="cls-21" x="38.78" y="27.93">r</tspan><tspan x="43.03" y="27.93">ar</tspan><tspan class="cls-39" x="53.74" y="27.93">y</tspan><tspan x="58.83" y="27.93">, d</tspan><tspan class="cls-40" x="72.12" y="27.93">e</tspan><tspan class="cls-41" x="78.46" y="27.93">v</tspan><tspan x="84.22" y="27.93">e</tspan><tspan class="cls-38" x="90.73" y="27.93">l</tspan><tspan x="93.87" y="27.93">opme</tspan><tspan class="cls-21" x="125.5" y="27.93">n</tspan><tspan class="cls-42" x="132.31" y="27.93">t</tspan><tspan x="136.64" y="27.93"> </tspan><tspan class="cls-43" x="140.28" y="27.93">o</tspan><tspan class="cls-44" x="147.03" y="27.93">f</tspan><tspan x="150.78" y="27.93"> </tspan><tspan class="cls-45" x="154.42" y="27.93">a</tspan><tspan x="160.45" y="27.93" xml:space="preserve"> Design </tspan><tspan class="cls-46" x="203.93" y="27.93">S</tspan><tspan class="cls-22" x="210.95" y="27.93">y</tspan><tspan x="216.72" y="27.93">stem, </tspan><tspan class="cls-47" x="250.87" y="27.93">e</tspan><tspan x="257.25" y="27.93">t</tspan><tspan class="cls-24" x="261.63" y="27.93">c</tspan><tspan x="267.93" y="27.93">.</tspan></text><text class="cls-28" transform="translate(279.82 266.66)">UNI<tspan class="cls-48" x="22.15" y="0">T</tspan><tspan x="29.08" y="0">4</tspan></text><text class="cls-2" transform="translate(57.47 330.16)"><tspan class="cls-49">+</tspan><tspan x="5.58" y="0">34 660 22 88 66</tspan></text><text class="cls-2" transform="translate(57.47 350.72)">edenhernandez<tspan class="cls-5" x="71.9" y="0">.</tspan><tspan x="74.23" y="0">de@gmail</tspan><tspan class="cls-5" x="120.17" y="0">.</tspan><tspan x="122.51" y="0">com</tspan></text><path class="cls-50" d="M68.5,242.42v.9h-29v-42.2H67.42v.9H40.5v19.31H62.11v.9H40.5v20.2Z"/><path class="cls-50" d="M105.23,206.3q5.28,5.18,5.28,15.28,0,10.68-5.28,16.21t-15.5,5.53h-13v-42.2h13Q100,201.12,105.23,206.3Zm-.77,30.85q5-5.28,5-15.57,0-9.65-5-14.61t-14.74-5h-12v40.41h12Q99.45,242.42,104.47,237.15Z"/><path class="cls-50" d="M149.51,242.42v.9h-29v-42.2h27.94v.9H121.51v19.31h21.61v.9H121.51v20.2Zm-14.83-46.61h-1l4.8-9.46h1.15Z"/><path class="cls-50" d="M189.47,243.32h-1.41l-27.69-38.68-1.66-2.49.06,3.64v37.53h-1v-42.2h1.41l27.69,38.68,1.66,2.49-.06-3.64V201.12h1Z"/><path class="cls-50" d="M47.79,255.8v10.81H47V261.5H40.29v5.11h-.82V255.8h.82v4.93H47V255.8Z"/><path class="cls-50" d="M58.85,265.85v.75H51.2V255.8h7.39v.75H52v4.18h5.19v.77H52v4.36Z"/><path class="cls-50" d="M68.38,266.61l-3.1-4.68H62v4.68h-.82V255.8h4a3.84,3.84,0,0,1,2.58.82,2.8,2.8,0,0,1,1,2.24,2.85,2.85,0,0,1-.69,2,3.24,3.24,0,0,1-1.88,1l3.15,4.78ZM62,261.15h3.18a3,3,0,0,0,2-.59,2.11,2.11,0,0,0,.7-1.7,2.13,2.13,0,0,0-.7-1.71,3,3,0,0,0-2-.6H62Z"/><path class="cls-50" d="M80,266.61H79l-5.73-8.48-.8-1.44h0l0,1.36v8.57h-.79V255.8h1l5.72,8.47.82,1.46,0-1.36V255.8H80Z"/><path class="cls-50" d="M89.41,263.22H84.23l-1.34,3.39H82l4.32-10.81h1l4.32,10.81h-.87Zm-.3-.75-1.88-4.72-.39-1.15h0l-.39,1.11-1.88,4.75Zm-2-8h-.67L87.53,252h1Z"/><path class="cls-50" d="M102,266.61h-1l-5.73-8.48-.8-1.44h0l0,1.36v8.57h-.79V255.8h1l5.72,8.47.82,1.46,0-1.36V255.8H102Z"/><path class="cls-50" d="M112.76,257.16a5.28,5.28,0,0,1,1.4,4,5.55,5.55,0,0,1-1.4,4.07,5.36,5.36,0,0,1-4,1.42h-3.41V255.8h3.41A5.47,5.47,0,0,1,112.76,257.16Zm-.61,7.47a4.92,4.92,0,0,0,1.16-3.51,4.65,4.65,0,0,0-1.16-3.38,4.42,4.42,0,0,0-3.32-1.19h-2.65v9.3h2.65A4.35,4.35,0,0,0,112.15,264.63Z"/><path class="cls-50" d="M124.54,265.85v.75h-7.65V255.8h7.39v.75h-6.57v4.18h5.19v.77h-5.19v4.36Z"/><path class="cls-50" d="M134.27,265.85v.75h-8.35v-.72l7.12-9.34h-7v-.75H134v.72l-7.13,9.34Z"/><path class="cls-50" d="M149.06,265.85v.75h-7.3V255.8h.82v10.06Z"/><path class="cls-50" d="M157.42,256.31a4.48,4.48,0,0,1,1.73,1.93,7.51,7.51,0,0,1,0,5.91,4.47,4.47,0,0,1-1.73,1.93,5.49,5.49,0,0,1-5.29,0,4.47,4.47,0,0,1-1.73-1.93,7.51,7.51,0,0,1,0-5.91,4.48,4.48,0,0,1,1.73-1.93,5.49,5.49,0,0,1,5.29,0Zm-4.83.66a3.77,3.77,0,0,0-1.42,1.67,6.83,6.83,0,0,0,0,5.13,3.77,3.77,0,0,0,1.42,1.67,4,4,0,0,0,2.19.58,4.07,4.07,0,0,0,2.19-.58,3.75,3.75,0,0,0,1.43-1.67,6.83,6.83,0,0,0,0-5.13A3.75,3.75,0,0,0,157,257a4.07,4.07,0,0,0-2.19-.58A4,4,0,0,0,152.59,257Zm3.84-5-1.36,2.42h-.67l1.07-2.42Z"/><path class="cls-50" d="M168.74,256.64a3.22,3.22,0,0,1,0,4.64,4,4,0,0,1-2.68.85h-2.77v4.47h-.82V255.8h3.59A4,4,0,0,1,168.74,256.64Zm-.62,4.1a2.5,2.5,0,0,0,0-3.56,3.25,3.25,0,0,0-2.15-.63h-2.67v4.82H166A3.28,3.28,0,0,0,168.11,260.74Z"/><path class="cls-50" d="M179.73,265.85v.75h-7.65V255.8h7.39v.75H172.9v4.18h5.19v.77H172.9v4.36Z"/><path class="cls-50" d="M189.46,265.85v.75h-8.35v-.72l7.12-9.34h-7v-.75h7.94v.72l-7.13,9.34Z"/><text class="cls-51" transform="translate(233.75 65.37)">G<tspan class="cls-52" x="14.57" y="0">r</tspan><tspan x="22.49" y="0">aphic/UX/</tspan><tspan class="cls-53" x="119.91" y="0">F</tspan><tspan class="cls-54" x="131.36" y="0">r</tspan><tspan class="cls-55" x="139.25" y="0">o</tspan><tspan class="cls-56" x="151.48" y="0">n</tspan><tspan x="163.8" y="0">tend DESIGNER</tspan></text><line class="cls-57" x1="235.69" y1="121.15" x2="550.7" y2="121.15"/><line class="cls-58" x1="269.96" y1="141.2" x2="269.96" y2="418.94"/><circle class="cls-50" cx="269.94" cy="141.74" r="2.09"/><text class="cls-59" transform="translate(244.37 143.14)">...<tspan class="cls-1"><tspan x="1.22" y="15.13">-</tspan></tspan><tspan x="-8.68" y="30.26">201</tspan><tspan class="cls-60" x="10.63" y="30.26">7</tspan></text><circle class="cls-50" cx="269.94" cy="244.54" r="2.09"/><text class="cls-59" transform="translate(235.69 248.91)">201<tspan class="cls-60" x="19.31" y="0">7</tspan><tspan class="cls-1"><tspan x="9.9" y="15.13">-</tspan></tspan><tspan x="-0.35" y="30.26">2015</tspan></text><text class="cls-11" transform="translate(279.82 351.3)">F<tspan class="cls-61" x="7.69" y="0">R</tspan><tspan class="cls-62" x="16" y="0">ONTEND DEVE</tspan><tspan class="cls-63" x="106.33" y="0">L</tspan><tspan x="113.58" y="0">OPER</tspan></text><text class="cls-15" transform="translate(279.82 386.36)"><tspan class="cls-64">F</tspan><tspan x="6.32" y="0">ullstac</tspan><tspan class="cls-65" x="42.53" y="0">k</tspan><tspan x="48.45" y="0" xml:space="preserve"> d</tspan><tspan class="cls-22" x="59.18" y="0">e</tspan><tspan class="cls-23" x="65.52" y="0">v</tspan><tspan x="71.28" y="0">e</tspan><tspan class="cls-38" x="77.79" y="0">l</tspan><tspan x="80.93" y="0">opme</tspan><tspan class="cls-21" x="112.56" y="0">n</tspan><tspan x="119.37" y="0">t, st</tspan><tspan class="cls-20" x="140.23" y="0">r</tspan><tspan x="144.35" y="0">ong</tspan><tspan class="cls-26" x="164.16" y="0">l</tspan><tspan class="cls-45" x="167.1" y="0">y</tspan><tspan class="cls-19" x="172.74" y="0"> </tspan><tspan class="cls-26" x="176.16" y="0">f</tspan><tspan x="180.08" y="0">ocused on</tspan><tspan class="cls-66" x="237.13" y="0"> </tspan><tspan x="240.54" y="0">the </tspan><tspan x="0" y="13.97">f</tspan><tspan class="cls-20" x="4.18" y="13.97">r</tspan><tspan x="8.3" y="13.97">o</tspan><tspan class="cls-21" x="15.16" y="13.97">n</tspan><tspan x="21.97" y="13.97">tend side </tspan><tspan class="cls-43" x="76.33" y="13.97">o</tspan><tspan class="cls-44" x="83.08" y="13.97">f</tspan><tspan x="86.83" y="13.97"> </tspan><tspan class="cls-45" x="90.47" y="13.97">a</tspan><tspan class="cls-67" x="96.5" y="13.97"> </tspan><tspan x="99.83" y="13.97">TE</tspan><tspan class="cls-68" x="113.66" y="13.97">L</tspan><tspan x="119.86" y="13.97">CO services pl</tspan><tspan class="cls-69" x="197.74" y="13.97">a</tspan><tspan class="cls-70" x="203.87" y="13.97">t</tspan><tspan class="cls-26" x="208.13" y="13.97">f</tspan><tspan x="212.05" y="13.97">orm used </tspan><tspan class="cls-71" x="0" y="27.93">b</tspan><tspan class="cls-45" x="6.91" y="27.93">y</tspan><tspan class="cls-72" x="12.56" y="27.93"> </tspan><tspan class="cls-73" x="15.77" y="27.93">V</tspan><tspan x="22.39" y="27.93">od</tspan><tspan class="cls-74" x="36.34" y="27.93">a</tspan><tspan class="cls-26" x="42.57" y="27.93">f</tspan><tspan x="46.49" y="27.93">on</tspan><tspan class="cls-27" x="60.32" y="27.93">e</tspan><tspan x="66.77" y="27.93">, </tspan><tspan class="cls-75" x="72.97" y="27.93">M</tspan><tspan class="cls-23" x="82.44" y="27.93">o</tspan><tspan x="89.23" y="27.93">vista</tspan><tspan class="cls-76" x="114.32" y="27.93">r</tspan><tspan x="117.78" y="27.93">, O2,...</tspan></text><text class="cls-28" transform="translate(279.82 369.14)">C<tspan class="cls-77" x="8.62" y="0">A</tspan><tspan x="16.92" y="0">S</tspan><tspan class="cls-78" x="25.01" y="0">E</tspan><tspan x="32.83" y="0">o</tspan><tspan class="cls-79" x="40.47" y="0">n</tspan><tspan x="48.22" y="0">I</tspan><tspan class="cls-80" x="52.04" y="0">T</tspan></text><circle class="cls-50" cx="269.94" cy="347.02" r="2.09"/><text class="cls-59" transform="translate(235.35 351.39)">2015<tspan class="cls-1"><tspan x="10.25" y="15.13">-</tspan></tspan><tspan x="-0.14" y="30.26">2014</tspan></text><text class="cls-11" transform="translate(235.69 473.31)"><tspan class="cls-81">E</tspan><tspan class="cls-62" x="7.8" y="0">duc</tspan><tspan class="cls-82" x="30.66" y="0">a</tspan><tspan x="37.55" y="0">tion</tspan></text><text class="cls-11" transform="translate(279.82 608.26)">COMPUTER SCIENCE &amp; COMMUNIC<tspan class="cls-83" x="215.18" y="0">A</tspan><tspan x="222.37" y="0">TIONS</tspan></text><text class="cls-15" transform="translate(279.82 643.32)"><tspan class="cls-84">C</tspan><tspan x="7.73" y="0">ompute</tspan><tspan class="cls-20" x="50.65" y="0">r</tspan><tspan x="54.77" y="0" xml:space="preserve"> Scienc</tspan><tspan class="cls-42" x="94.43" y="0">e</tspan><tspan x="100.88" y="0">,</tspan><tspan class="cls-85" x="103.44" y="0" xml:space="preserve"> p</tspan><tspan class="cls-86" x="113.96" y="0">r</tspan><tspan class="cls-85" x="117.98" y="0">og</tspan><tspan class="cls-26" x="130.63" y="0">r</tspan><tspan class="cls-85" x="134.77" y="0">amming, e</tspan><tspan class="cls-21" x="190.82" y="0">l</tspan><tspan class="cls-85" x="193.85" y="0">ect</tspan><tspan class="cls-86" x="210.78" y="0">r</tspan><tspan class="cls-85" x="214.79" y="0">onics,</tspan><tspan class="cls-87" x="245.43" y="0"> </tspan><tspan class="cls-21" x="248.71" y="0">w</tspan><tspan x="258.11" y="0">eb </tspan><tspan x="0" y="13.96">techno</tspan><tspan class="cls-24" x="38.02" y="13.96">l</tspan><tspan x="41.16" y="13.96">ogies, mobi</tspan><tspan class="cls-38" x="103.06" y="13.96">l</tspan><tspan x="106.21" y="13.96">e /</tspan><tspan class="cls-26" x="120.96" y="13.96"> </tspan><tspan x="124.35" y="13.96">wi</tspan><tspan class="cls-20" x="136.56" y="13.96">r</tspan><tspan x="140.68" y="13.96">e</tspan><tspan class="cls-24" x="147.18" y="13.96">l</tspan><tspan x="150.33" y="13.96">ess communic</tspan><tspan class="cls-69" x="230.65" y="13.96">a</tspan><tspan x="236.78" y="13.96">tions,</tspan><tspan x="0" y="27.93">And</tspan><tspan class="cls-20" x="21.32" y="27.93">r</tspan><tspan x="25.44" y="27.93">oid d</tspan><tspan class="cls-22" x="52.79" y="27.93">e</tspan><tspan class="cls-23" x="59.13" y="27.93">v</tspan><tspan x="64.89" y="27.93">e</tspan><tspan class="cls-24" x="71.4" y="27.93">l</tspan><tspan x="74.54" y="27.93">opme</tspan><tspan class="cls-17" x="106.17" y="27.93">n</tspan><tspan x="112.98" y="27.93">t.</tspan></text><text class="cls-28" transform="translate(279.82 626.1)"><tspan class="cls-88">U</tspan><tspan x="9" y="0">ni</tspan><tspan class="cls-89" x="20.26" y="0">v</tspan><tspan x="26.93" y="0">e</tspan><tspan class="cls-90" x="34.25" y="0">r</tspan><tspan x="39.26" y="0">si</tspan><tspan class="cls-91" x="49.38" y="0">t</tspan><tspan class="cls-92" x="54.77" y="0">ä</tspan><tspan x="61.7" y="0">t Duisbu</tspan><tspan class="cls-93" x="113.88" y="0">r</tspan><tspan class="cls-94" x="118.84" y="0">g</tspan><tspan x="125.77" y="0">-Es</tspan><tspan class="cls-95" x="146.95" y="0">s</tspan><tspan x="153.61" y="0">en </tspan><tspan class="cls-96" x="172.83" y="0">(</tspan><tspan x="177" y="0">Germa</tspan><tspan class="cls-97" x="217.82" y="0">n</tspan><tspan class="cls-12" x="225.42" y="0">y</tspan><tspan x="231.88" y="0">)</tspan></text><line class="cls-57" x1="235.69" y1="480.59" x2="550.7" y2="480.59"/><text class="cls-11" transform="translate(35.69 616.31)">Skills</text><line class="cls-57" x1="35.69" y1="623.59" x2="199.06" y2="623.59"/><line class="cls-58" x1="269.96" y1="500.64" x2="269.96" y2="781.05"/><circle class="cls-50" cx="269.94" cy="603.99" r="2.09"/><text class="cls-59" transform="translate(235.35 608.35)">2012<tspan class="cls-1"><tspan x="10.25" y="15.13">-</tspan></tspan><tspan x="-1.75" y="30.26">2009</tspan></text><text class="cls-11" transform="translate(279.82 710.74)">TEL<tspan class="cls-98" x="23.2" y="0">E</tspan><tspan x="31.05" y="0">COMMUNIC</tspan><tspan class="cls-83" x="101.38" y="0">A</tspan><tspan x="108.56" y="0">TIONS ENGINEERING</tspan></text><text class="cls-15" transform="translate(279.82 745.8)">E<tspan class="cls-21" x="7.12" y="0">l</tspan><tspan class="cls-85" x="10.16" y="0">ect</tspan><tspan class="cls-99" x="27.08" y="0">r</tspan><tspan class="cls-100" x="31.1" y="0">onics, p</tspan><tspan class="cls-101" x="72.26" y="0">r</tspan><tspan class="cls-85" x="76.28" y="0">og</tspan><tspan class="cls-26" x="88.93" y="0">r</tspan><tspan class="cls-100" x="93.07" y="0">amming</tspan><tspan x="136.72" y="0">, mobi</tspan><tspan class="cls-24" x="170.71" y="0">l</tspan><tspan x="173.86" y="0">e and</tspan><tspan class="cls-26" x="204.37" y="0"> </tspan><tspan x="207.76" y="0">wi</tspan><tspan class="cls-20" x="219.97" y="0">r</tspan><tspan x="224.09" y="0">e</tspan><tspan class="cls-38" x="230.59" y="0">l</tspan><tspan x="233.73" y="0">ess </tspan><tspan x="0" y="13.96">communic</tspan><tspan class="cls-46" x="58.42" y="13.96">a</tspan><tspan x="64.55" y="13.96">tions,</tspan><tspan class="cls-102" x="93.87" y="13.96"> </tspan><tspan x="97.28" y="13.96">te</tspan><tspan class="cls-38" x="108.17" y="13.96">l</tspan><tspan x="111.32" y="13.96">epho</tspan><tspan class="cls-103" x="138.73" y="13.96">n</tspan><tspan class="cls-39" x="145.55" y="13.96">y</tspan><tspan x="150.64" y="13.96">, signals and </tspan><tspan class="cls-26" x="221.37" y="13.96">s</tspan><tspan class="cls-22" x="226.99" y="13.96">y</tspan><tspan x="232.77" y="13.96">stems.</tspan><tspan x="0" y="27.93">Deg</tspan><tspan class="cls-20" x="20.69" y="27.93">r</tspan><tspan x="24.81" y="27.93">ee n</tspan><tspan class="cls-43" x="48.42" y="27.93">o</tspan><tspan class="cls-27" x="55.17" y="27.93">t</tspan><tspan class="cls-33" x="59.5" y="27.93"> </tspan><tspan x="62.93" y="27.93">finished.</tspan></text><text class="cls-28" transform="translate(279.82 728.58)"><tspan class="cls-88">U</tspan><tspan x="9" y="0">ni</tspan><tspan class="cls-89" x="20.26" y="0">v</tspan><tspan x="26.93" y="0">e</tspan><tspan class="cls-90" x="34.25" y="0">r</tspan><tspan x="39.26" y="0">sid</tspan><tspan class="cls-104" x="57.31" y="0">a</tspan><tspan x="64.49" y="0">d de G</tspan><tspan class="cls-105" x="105" y="0">r</tspan><tspan x="110.08" y="0">an</tspan><tspan class="cls-95" x="125.07" y="0">a</tspan><tspan x="132.24" y="0">d</tspan><tspan class="cls-106" x="140.17" y="0">a</tspan><tspan x="147.12" y="0"> </tspan><tspan class="cls-63" x="151.22" y="0">(</tspan><tspan class="cls-94" x="155.49" y="0">S</tspan><tspan class="cls-95" x="163.54" y="0">p</tspan><tspan x="171.45" y="0">ai</tspan><tspan class="cls-107" x="182.09" y="0">n</tspan><tspan x="189.45" y="0">)</tspan></text><circle class="cls-50" cx="269.94" cy="706.46" r="2.09"/><text class="cls-59" transform="translate(233.59 710.83)">2009<tspan class="cls-1"><tspan x="12" y="15.13">-</tspan></tspan><tspan x="0.09" y="30.26">2004</tspan></text><text class="cls-11" transform="translate(279.82 505.21)">GRAPHIC DESIGN<tspan class="cls-108" x="106.78" y="0"> </tspan><tspan x="110.58" y="0">AND M</tspan><tspan class="cls-13" x="152.31" y="0">O</tspan><tspan x="161.46" y="0">TION GRAPHICS</tspan></text><text class="cls-15" transform="translate(279.82 540.28)">G<tspan class="cls-16" x="8.17" y="0">r</tspan><tspan x="12.42" y="0">aphic design, b</tspan><tspan class="cls-17" x="93.81" y="0">r</tspan><tspan x="98.06" y="0">anding, pri</tspan><tspan class="cls-21" x="154.4" y="0">n</tspan><tspan x="161.21" y="0">ting,</tspan><tspan class="cls-102" x="183.77" y="0"> </tspan><tspan x="187.18" y="0">typog</tspan><tspan class="cls-21" x="217.45" y="0">r</tspan><tspan x="221.7" y="0">ap</tspan><tspan class="cls-103" x="235.11" y="0">h</tspan><tspan class="cls-39" x="241.93" y="0">y</tspan><tspan x="247.01" y="0">, </tspan><tspan x="0" y="13.96">cinem</tspan><tspan class="cls-45" x="33.64" y="13.96">a</tspan><tspan x="39.67" y="13.96" xml:space="preserve"> and</tspan><tspan class="cls-67" x="63.68" y="13.96"> </tspan><tspan x="67.01" y="13.96">T</tspan><tspan class="cls-44" x="73.71" y="13.96">V</tspan><tspan x="80.43" y="13.96" xml:space="preserve"> languag</tspan><tspan class="cls-42" x="125.75" y="13.96">e</tspan><tspan x="132.19" y="13.96">, anim</tspan><tspan class="cls-69" x="165.51" y="13.96">a</tspan><tspan x="171.64" y="13.96">tion,</tspan><tspan class="cls-45" x="195.08" y="13.96"> </tspan><tspan x="198.43" y="13.96">video map</tspan><tspan x="255.62" y="13.96">-</tspan><tspan x="0" y="27.93">ping and m</tspan><tspan class="cls-43" x="61.53" y="27.93">o</tspan><tspan x="68.28" y="27.93">tion g</tspan><tspan class="cls-21" x="98.79" y="27.93">r</tspan><tspan x="103.04" y="27.93">aphics.</tspan></text><text class="cls-28" transform="translate(279.82 523.05)">Es<tspan class="cls-91" x="14.69" y="0">t</tspan><tspan class="cls-95" x="20.07" y="0">a</tspan><tspan x="27.25" y="0">ción </tspan><tspan class="cls-94" x="57.38" y="0">D</tspan><tspan x="66.4" y="0">i</tspan><tspan class="cls-95" x="69.86" y="0">s</tspan><tspan x="76.51" y="0">eño </tspan><tspan class="cls-109" x="103.38" y="0">(</tspan><tspan x="107.35" y="0">design </tspan><tspan class="cls-95" x="151.62" y="0">s</tspan><tspan x="158.27" y="0">choo</tspan><tspan class="cls-110" x="188.5" y="0">l</tspan><tspan x="192.5" y="0">, G</tspan><tspan class="cls-105" x="209.17" y="0">r</tspan><tspan x="214.25" y="0">an</tspan><tspan class="cls-104" x="229.24" y="0">a</tspan><tspan x="236.42" y="0">d</tspan><tspan class="cls-63" x="244.35" y="0">a</tspan><tspan x="251.24" y="0">)</tspan></text><circle class="cls-50" cx="269.94" cy="500.94" r="2.09"/><text class="cls-59" transform="translate(235.69 505.3)">201<tspan class="cls-60" x="19.31" y="0">7</tspan><tspan class="cls-1"><tspan x="9.9" y="15.13">-</tspan></tspan><tspan x="-0.48" y="30.26">2016</tspan></text><path class="cls-111" d="M46.46,305.78,42.83,300c-1.12-3.9,1.93-5.37,3.54-5.37,3.65,0,4.36,4.16,3.57,5.61Z"/><path class="cls-50" d="M46.44,294.17a4.25,4.25,0,0,0-3.62,6.48l3.37,5.44a.35.35,0,0,0,.3.17h0a.35.35,0,0,0,.3-.17l3.29-5.49a4.25,4.25,0,0,0-3.65-6.43Zm3,6.06-3,5-3.07-4.94a3.54,3.54,0,1,1,6.06,0Z"/><path class="cls-50" d="M46.44,296.5a1.92,1.92,0,1,0,1.92,1.92A1.92,1.92,0,0,0,46.44,296.5Z"/><path class="cls-50" d="M50.34,328.17a1.19,1.19,0,0,0-.87-.4,1.24,1.24,0,0,0-.88.39l-.81.81-.2-.1-.25-.14a8.81,8.81,0,0,1-2.11-1.92,5.19,5.19,0,0,1-.69-1.09c.21-.19.41-.39.59-.58l.22-.22a1.18,1.18,0,0,0,0-1.77l-.7-.7-.24-.24c-.15-.16-.32-.32-.48-.48a1.21,1.21,0,0,0-.86-.38,1.26,1.26,0,0,0-.87.38h0l-.87.88a1.88,1.88,0,0,0-.56,1.19,4.49,4.49,0,0,0,.33,1.9A11,11,0,0,0,43,329a12.06,12.06,0,0,0,4,3.15,6.26,6.26,0,0,0,2.26.67h.16a1.93,1.93,0,0,0,1.48-.64h0a5.83,5.83,0,0,1,.45-.46l.33-.33a1.28,1.28,0,0,0,.39-.89,1.23,1.23,0,0,0-.39-.88Z"/><path class="cls-111" d="M51.29,330.89h0l-.31.31a6.79,6.79,0,0,0-.5.52,1.24,1.24,0,0,1-1,.41h-.12a5.6,5.6,0,0,1-2-.6,11.47,11.47,0,0,1-3.81-3,10.48,10.48,0,0,1-1.86-3.09,3.69,3.69,0,0,1-.29-1.62,1.18,1.18,0,0,1,.36-.77l.88-.88A.59.59,0,0,1,43,322a.55.55,0,0,1,.38.18h0l.46.46.25.25.7.7a.49.49,0,0,1,0,.8l-.22.22c-.22.22-.42.43-.65.63h0a.53.53,0,0,0-.13.59v0a5.66,5.66,0,0,0,.83,1.36h0A9.47,9.47,0,0,0,47,329.33l.32.17.26.14,0,0a.56.56,0,0,0,.26.06.55.55,0,0,0,.39-.18l.88-.88a.58.58,0,0,1,.39-.19.53.53,0,0,1,.37.19h0l1.42,1.42A.51.51,0,0,1,51.29,330.89Z"/><path class="cls-50" d="M53.4,344.14a.71.71,0,0,0-.71-.71h0l-12.5,0a.71.71,0,0,0-.71.71v7a.71.71,0,0,0,.71.71h0l12.5,0a.71.71,0,0,0,.71-.71Z"/><polygon class="cls-111" points="51.9 344.14 46.44 347.94 40.97 344.16 51.9 344.14"/><path class="cls-111" d="M48.75,348.66,52,351.17l-11.11,0,3.26-2.53a.36.36,0,1,0-.44-.56l-3.51,2.72v-6.33l6.05,4.18a.36.36,0,0,0,.41,0l6-4.2v6.34l-3.51-2.72a.36.36,0,0,0-.44.56Z"/><text class="cls-112" transform="translate(38 396.3)">Hi, I<tspan class="cls-113" x="17.36" y="0">’</tspan><tspan x="19.42" y="0">m </tspan><tspan class="cls-114" x="32.15" y="0">E</tspan><tspan x="37.97" y="0">dén, 32</tspan><tspan class="cls-115" x="72.1" y="0"> </tspan><tspan class="cls-116" x="74.98" y="0">y</tspan><tspan x="80.01" y="0">ea</tspan><tspan class="cls-117" x="91.03" y="0">r</tspan><tspan x="94.64" y="0">s o</tspan><tspan class="cls-118" x="108.72" y="0">l</tspan><tspan x="111.42" y="0">d designe</tspan><tspan class="cls-119" x="156.38" y="0">r</tspan><tspan x="159.92" y="0"> </tspan><tspan x="0" y="12">based in G</tspan><tspan class="cls-120" x="49.8" y="12">r</tspan><tspan x="53.45" y="12">anada, </tspan><tspan class="cls-121" x="87.14" y="12">S</tspan><tspan x="93.3" y="12">pain.</tspan><tspan x="0" y="36">I enj</tspan><tspan class="cls-122" x="19.57" y="36">o</tspan><tspan class="cls-115" x="25.32" y="36">y</tspan><tspan class="cls-123" x="30.17" y="36"> </tspan><tspan class="cls-120" x="33.08" y="36">w</tspan><tspan x="41.15" y="36">orking side-</tspan><tspan class="cls-122" x="96.33" y="36">b</tspan><tspan class="cls-115" x="102.27" y="36">y</tspan><tspan class="cls-124" x="107.12" y="36">-</tspan><tspan x="111.7" y="36">side</tspan><tspan class="cls-123" x="130.72" y="36"> </tspan><tspan x="133.63" y="36">with </tspan><tspan x="0" y="48">peop</tspan><tspan class="cls-118" x="23.67" y="48">l</tspan><tspan x="26.37" y="48">e</tspan><tspan class="cls-125" x="31.96" y="48"> </tspan><tspan class="cls-126" x="35.15" y="48">to help</tspan><tspan class="cls-127" x="70.17" y="48"> </tspan><tspan class="cls-126" x="73.36" y="48">them</tspan><tspan class="cls-128" x="99.34" y="48"> </tspan><tspan class="cls-129" x="102.54" y="48">finding</tspan><tspan class="cls-125" x="135.46" y="48"> </tspan><tspan x="138.65" y="48">thei</tspan><tspan class="cls-119" x="156.28" y="48">r</tspan><tspan x="159.82" y="48"> </tspan><tspan x="0" y="60">visua</tspan><tspan class="cls-130" x="23.72" y="60">l</tspan><tspan class="cls-131" x="26.14" y="60" xml:space="preserve"> ide</tspan><tspan class="cls-132" x="43" y="60">n</tspan><tspan class="cls-131" x="48.79" y="60">tit</tspan><tspan class="cls-133" x="58.44" y="60">y</tspan><tspan class="cls-131" x="62.75" y="60">, so</tspan><tspan class="cls-134" x="78.79" y="60">l</tspan><tspan class="cls-131" x="81.27" y="60">ving</tspan><tspan class="cls-135" x="99.47" y="60"> </tspan><tspan class="cls-131" x="102.34" y="60">thei</tspan><tspan class="cls-114" x="119.73" y="60">r</tspan><tspan class="cls-131" x="123.21" y="60"> </tspan><tspan x="126.28" y="60">design </tspan><tspan x="0" y="72">p</tspan><tspan class="cls-119" x="6.09" y="72">r</tspan><tspan x="9.63" y="72">ob</tspan><tspan class="cls-118" x="21.62" y="72">l</tspan><tspan x="24.32" y="72">ems and c</tspan><tspan class="cls-119" x="73.77" y="72">r</tspan><tspan x="77.31" y="72">e</tspan><tspan class="cls-136" x="82.9" y="72">a</tspan><tspan x="88.17" y="72">ting audi</tspan><tspan class="cls-116" x="128.23" y="72">o</tspan><tspan x="134.06" y="72">visua</tspan><tspan class="cls-130" x="157.78" y="72">l</tspan><tspan class="cls-137" x="0" y="84">e</tspan><tspan x="5.4" y="84">xperiences.</tspan><tspan x="0" y="108">I</tspan><tspan class="cls-113" x="2.58" y="108">’</tspan><tspan x="4.64" y="108">m c</tspan><tspan class="cls-119" x="22.82" y="108">r</tspan><tspan x="26.36" y="108">e</tspan><tspan class="cls-138" x="31.95" y="108">a</tspan><tspan x="37.22" y="108">ti</tspan><tspan class="cls-139" x="43.28" y="108">v</tspan><tspan class="cls-140" x="48.23" y="108">e</tspan><tspan x="53.77" y="108">, sociab</tspan><tspan class="cls-118" x="89.31" y="108">l</tspan><tspan class="cls-140" x="92.01" y="108">e</tspan><tspan x="97.55" y="108">, e</tspan><tspan class="cls-120" x="108.47" y="108">n</tspan><tspan x="114.32" y="108">thusiastic </tspan><tspan x="0" y="120">and d</tspan><tspan class="cls-141" x="26.72" y="120">e</tspan><tspan x="32.2" y="120">termined.</tspan><tspan x="0" y="144">I </tspan><tspan class="cls-118" x="5.71" y="144">l</tspan><tspan class="cls-116" x="8.41" y="144">ov</tspan><tspan x="19.19" y="144">e music and cinema; animals </tspan><tspan x="0" y="156">and eco</tspan><tspan class="cls-118" x="37.57" y="156">l</tspan><tspan x="40.27" y="156">ogy;</tspan><tspan class="cls-115" x="58.89" y="156"> </tspan><tspan class="cls-116" x="61.77" y="156">v</tspan><tspan x="66.72" y="156">eg</tspan><tspan class="cls-141" x="77.46" y="156">e</tspan><tspan x="82.94" y="156">tarian</tspan><tspan class="cls-137" x="109.62" y="156"> </tspan><tspan class="cls-123" x="112.56" y="156">f</tspan><tspan x="115.93" y="156">ood, c</tspan><tspan class="cls-120" x="144.6" y="156">r</tspan><tspan class="cls-124" x="148.25" y="156">a</tspan><tspan class="cls-142" x="153.6" y="156">f</tspan><tspan class="cls-140" x="156.74" y="156">t</tspan><tspan x="160.46" y="156"> </tspan><tspan x="0" y="168">bee</tspan><tspan class="cls-117" x="17.27" y="168">r</tspan><tspan x="20.88" y="168">s and good</tspan><tspan class="cls-123" x="72.73" y="168"> </tspan><tspan x="75.64" y="168">win</tspan><tspan class="cls-143" x="92.11" y="168">e</tspan><tspan x="97.65" y="168">.</tspan></text><text class="cls-144" transform="translate(35.69 640.5)">Il<tspan class="cls-145" x="5.2" y="0">l</tspan><tspan x="7.86" y="0">ust</tspan><tspan class="cls-137" x="22.43" y="0">r</tspan><tspan class="cls-146" x="26.02" y="0">a</tspan><tspan x="31.23" y="0">to</tspan><tspan class="cls-114" x="40.78" y="0">r</tspan></text><text class="cls-144" transform="translate(35.69 662.67)">Ph<tspan class="cls-136" x="11.73" y="0">o</tspan><tspan x="17.47" y="0">toshop</tspan></text><text class="cls-144" transform="translate(35.69 684.83)">S<tspan class="cls-115" x="6.13" y="0">k</tspan><tspan class="cls-117" x="11.15" y="0">e</tspan><tspan x="16.57" y="0">tch</tspan></text><text class="cls-144" transform="translate(35.69 707)">MS<tspan class="cls-147" x="14.29" y="0"> </tspan><tspan x="17.05" y="0">Axu</tspan><tspan class="cls-114" x="34.09" y="0">r</tspan><tspan x="37.57" y="0">e</tspan></text><text class="cls-148" transform="translate(35.69 729.17)">A<tspan class="cls-149" x="6" y="0">f</tspan><tspan class="cls-131" x="9.08" y="0">te</tspan><tspan class="cls-114" x="18.32" y="0">r</tspan><tspan class="cls-131" x="21.8" y="0"> </tspan><tspan class="cls-150" x="24.87" y="0">E</tspan><tspan class="cls-151" x="30.76" y="0">f</tspan><tspan class="cls-152" x="33.78" y="0">f</tspan><tspan class="cls-131" x="37.09" y="0">ects</tspan></text><text class="cls-153" transform="translate(127.69 640.5)">HTML<tspan class="cls-150" x="26.62" y="0">/</tspan><tspan class="cls-131" x="30.35" y="0">CSS</tspan><tspan class="cls-154" x="49.24" y="0">/</tspan><tspan class="cls-131" x="52.65" y="0">JS</tspan></text><text class="cls-144" transform="translate(127.69 662.67)">Angula<tspan class="cls-114" x="31.12" y="0">r</tspan></text><text class="cls-144" transform="translate(127.69 684.83)">nod<tspan class="cls-141" x="17.79" y="0">e</tspan><tspan class="cls-155" x="23.27" y="0">.</tspan><tspan x="25.6" y="0">js</tspan></text><text class="cls-144" transform="translate(127.69 707)">PH<tspan class="cls-156" x="12.91" y="0">P</tspan></text><text class="cls-157" transform="translate(127.69 729.17)">W<tspan class="cls-131" x="8.97" y="0">o</tspan><tspan class="cls-114" x="14.81" y="0">r</tspan><tspan class="cls-131" x="18.29" y="0">dp</tspan><tspan class="cls-114" x="30.35" y="0">r</tspan><tspan class="cls-131" x="33.83" y="0">ess</tspan></text><rect class="cls-158" x="35.69" y="644.63" width="68.99" height="3.25"/><rect class="cls-158" x="35.69" y="666.79" width="68.99" height="3.25"/><rect class="cls-158" x="35.69" y="688.96" width="46.62" height="3.25"/><rect class="cls-158" x="35.69" y="711.12" width="46.62" height="3.25"/><rect class="cls-158" x="35.69" y="733.29" width="68.99" height="3.25"/><rect class="cls-158" x="127.69" y="644.63" width="68.99" height="3.25"/><rect class="cls-158" x="127.69" y="666.79" width="41.53" height="3.25"/><rect class="cls-158" x="127.69" y="688.96" width="41.53" height="3.25"/><rect class="cls-158" x="127.69" y="711.12" width="41.53" height="3.25"/><rect class="cls-158" x="127.69" y="733.29" width="55.42" height="3.25"/><line class="cls-159" x1="248.53" y1="728.44" x2="248.53" y2="721.17"/><polygon class="cls-50" points="250.13 722.26 248.53 716.3 246.94 722.26 250.13 722.26"/><line class="cls-159" x1="248.53" y1="625.66" x2="248.53" y2="618.39"/><polygon class="cls-50" points="250.13 619.48 248.53 613.52 246.94 619.48 250.13 619.48"/><line class="cls-159" x1="248.53" y1="522.56" x2="248.53" y2="515.29"/><polygon class="cls-50" points="250.13 516.38 248.53 510.41 246.94 516.38 250.13 516.38"/><line class="cls-159" x1="248.53" y1="368.99" x2="248.53" y2="361.72"/><polygon class="cls-50" points="250.13 362.81 248.53 356.85 246.94 362.81 250.13 362.81"/><line class="cls-159" x1="248.53" y1="265.92" x2="248.53" y2="258.65"/><polygon class="cls-50" points="250.13 259.74 248.53 253.77 246.94 259.74 250.13 259.74"/><line class="cls-159" x1="248.53" y1="160.87" x2="248.53" y2="153.6"/><polygon class="cls-50" points="250.13 154.69 248.53 148.73 246.94 154.69 250.13 154.69"/></g><g id="foto"><path class="cls-50" d="M91.43,59.55c-5,2.89-11.11,7.24-14.64,16.4-1.08,2.89-6.42.72-11.18,6.2s-1.92,8.62-1.66,9.09c.07-.79-.68-4.75.72-3.61,1.59,1.3,1.88,7.29-.94,8.94s2.87,10,1.15,11.83c-11.49,12,1.25,26.55-11.54,24.33,6.16,6.44,12.26,2.64,12.26,2.64,0,2.45-5.92,5.19-10,3,1.88,5,13.85,4.33,13.85,4.33-.39,1.6-7.6,8-1.35,17.31-.48-8.75,1.73-9.14,1.73-9.14-2.12,5.77,1.73,13.66,15.2,19.81-7.21-7.5-9.52-11.73-7.89-18.27,1.15,4.23,10.09,12.61,15.39,13.08-6.2-6.2-2.81-8.15-2.81-8.15,4.76,5,11.61,14.28,16.37,16.81s14.42,2,18.32-.43c6.53-4,15.15-18.68,17.53-25.17,0,6.13-.07,8.37-3.61,10.89,4.18-.58,7.72-3.9,7.72-3.9s-3.1,6.71-7.72,8.22c13.34-1.73,13.65-6.42,15.8-11.9,2.67-6.28,1.37,5.34-3.53,10,7.29-4.83,10-19.4,10.89-21s1.95,2.45,3,2.67.07-3.82,4.76-3.32,6.28-1.88,6.28-1.88-4.53,1.73-7.5-2.09c5-.07,7.07-1.59,7.07-1.59s-7.9,2.12-6.56-15.15c1.26-16.37-4.07-19.59-6.2-22.65-2.52-3.61-6.49-13.42-7.79-18.68s-13.06-15-19-17.67-11.54-11-23.8-6C107.3,49.69,95.75,50.86,93,58.78A3.05,3.05,0,0,1,91.43,59.55Z"/><path class="cls-111" d="M85.94,101.49c.68-.7,1.58-3.72,1.83-6.16.33-3.25-.33-15.94,17.72-23.52,7.29,8.08,23.88,21.1,32.17,23.26a9,9,0,0,1,4.83,5.63s-15.94-.79-24.6,2.24c-3.11,1.08-4.91.94-8.8-.22C105.91,101.77,91.45,100.81,85.94,101.49Z"/><path class="cls-111" d="M84.21,118.41c.38,4.62,17.94,9.1,23.23,1.54,4.33-6.19,3.92-7.53,5-10.44.63-1.68,4.09-1.44,4.38,0,.49,2.46,1.91,9.13,7.21,12.36,3.51,2.14,16.3,2.31,20.58-3.61,0,0-4.09,19.53-10.72,22.41-1.44.63-2.89-4.66-7.5-5.92-1.4-.38-3.11-1-3.32-1.49a8.15,8.15,0,0,0-4.23-3.7s-1.92,2.21-2.45,2.69-2.6.38-3.46,0a8.12,8.12,0,0,1-2.6-2.5c-.19-.43-2.77,2-3.9,4.14-.82,1.54-1.2.58-2.16.58s-5-.48-8.8,6.08C94.1,142.94,83.16,130.72,84.21,118.41Z"/><path class="cls-111" d="M114.38,139.09c-2,1.25-2.27,2-6.22,2.89s-8,1.06-6.35,6.54,7.31,11.45,10.29,11.54,11.35-3.46,14.72-10.48-1.39-8.44-3.65-8.68A43.42,43.42,0,0,1,114.38,139.09Z"/><path class="cls-50" d="M108,145.34c2.16,0,9.23,2.12,11.35,1s1.25,1.92,1.15,4-2.31-1.06-3.56,1.15a27.83,27.83,0,0,0-2.13,4.42c-.09.38-1.14-2.74-3.74-4.52-2.8-1.92-.58,2.69-.58,2.69C108.59,152.74,106,145.32,108,145.34Z"/><path class="cls-111" d="M129.71,77.34c.15,2.28,6.2,10.47,8.73,11.41,0,0-4.83-5.25-4.59-8.23S129.71,77.34,129.71,77.34Z"/></g></svg>