<?xml version="1.0" encoding="utf-8"?>
<!-- Generator: Adobe Illustrator 21.0.2, SVG Export Plug-In . SVG Version: 6.00 Build 0)  -->
<svg version="1.1" id="Capa_1" xmlns="http://www.w3.org/2000/svg" xmlns:xlink="http://www.w3.org/1999/xlink" x="0px" y="0px"
	 viewBox="0 0 1151 534" style="enable-background:new 0 0 1151 534;" xml:space="preserve">
<style type="text/css">
	.st0{fill:#4F81BD;}
	.st1{fill:#FFFFFF;}
	.st2{fill:#E9EDF4;}
	.st3{fill:#D0D8E8;}
	.st4{font-family:'MyriadPro-Regular';}
	.st5{font-size:44px;}
	.st6{font-size:38.6243px;}
	.st7{font-size:21px;}
	.st8{font-size:19px;}
	.st9{font-size:16px;}
	.st10{font-size:28px;}
</style>
<g>
	<rect x="230.9" y="0.5" class="st0" width="228.4" height="104.8"/>
	<path class="st1" d="M458.8,1v103.8H231.4V1H458.8 M459.8,0H230.4v105.8h229.4V0L459.8,0z"/>
</g>
<g>
	<rect x="461.3" y="0.5" class="st0" width="228.4" height="104.8"/>
	<path class="st1" d="M689.2,1v103.8H461.8V1H689.2 M690.2,0H460.8v105.8h229.4V0L690.2,0z"/>
</g>
<g>
	<rect x="691.7" y="0.5" class="st0" width="228.4" height="104.8"/>
	<path class="st1" d="M919.6,1v103.8H692.2V1H919.6 M920.6,0H691.2v105.8h229.4V0L920.6,0z"/>
</g>
<g>
	<rect x="922.1" y="0.5" class="st0" width="228.4" height="104.8"/>
	<path class="st1" d="M1150,1v103.8H922.6V1H1150 M1151,0H921.6v105.8H1151V0L1151,0z"/>
</g>
<g>
	<rect y="107" class="st0" width="229.4" height="105.8"/>
</g>
<g>
	<rect x="230.9" y="107.5" class="st2" width="228.4" height="104.8"/>
	<path class="st1" d="M458.8,108v103.8H231.4V108H458.8 M459.8,107H230.4v105.8h229.4V107L459.8,107z"/>
</g>
<g>
	<rect x="461.3" y="107.5" class="st2" width="228.4" height="104.8"/>
	<path class="st1" d="M689.2,108v103.8H461.8V108H689.2 M690.2,107H460.8v105.8h229.4V107L690.2,107z"/>
</g>
<g>
	<rect x="691.7" y="107.5" class="st2" width="228.4" height="104.8"/>
	<path class="st1" d="M919.6,108v103.8H692.2V108H919.6 M920.6,107H691.2v105.8h229.4V107L920.6,107z"/>
</g>
<g>
	<rect x="922.1" y="107.5" class="st2" width="228.4" height="104.8"/>
	<path class="st1" d="M1150,108v103.8H922.6V108H1150 M1151,107H921.6v105.8H1151V107L1151,107z"/>
</g>
<g>
	<rect y="214" class="st0" width="229.4" height="105.8"/>
</g>
<g>
	<rect x="230.9" y="214.5" class="st3" width="228.4" height="104.8"/>
	<path class="st1" d="M458.8,215v103.8H231.4V215H458.8 M459.8,214H230.4v105.8h229.4V214L459.8,214z"/>
</g>
<g>
	<rect x="461.3" y="214.5" class="st3" width="228.4" height="104.8"/>
	<path class="st1" d="M689.2,215v103.8H461.8V215H689.2 M690.2,214H460.8v105.8h229.4V214L690.2,214z"/>
</g>
<g>
	<rect x="691.7" y="214.5" class="st3" width="228.4" height="104.8"/>
	<path class="st1" d="M919.6,215v103.8H692.2V215H919.6 M920.6,214H691.2v105.8h229.4V214L920.6,214z"/>
</g>
<g>
	<rect x="922.1" y="214.5" class="st3" width="228.4" height="104.8"/>
	<path class="st1" d="M1150,215v103.8H922.6V215H1150 M1151,214H921.6v105.8H1151V214L1151,214z"/>
</g>
<g>
	<rect y="321" class="st0" width="229.4" height="105.8"/>
</g>
<g>
	<rect x="230.9" y="321.5" class="st2" width="228.4" height="104.8"/>
	<g>
		<path class="st1" d="M458.8,322v103.8H231.4V322H458.8 M459.8,321H230.4v105.8h229.4V321L459.8,321z"/>
	</g>
</g>
<g>
	<rect x="461.3" y="321.5" class="st2" width="228.4" height="104.8"/>
	<g>
		<path class="st1" d="M689.2,322v103.8H461.8V322H689.2 M690.2,321H460.8v105.8h229.4V321L690.2,321z"/>
	</g>
</g>
<g>
	<rect x="691.7" y="321.5" class="st2" width="228.4" height="104.8"/>
	<g>
		<path class="st1" d="M919.6,322v103.8H692.2V322H919.6 M920.6,321H691.2v105.8h229.4V321L920.6,321z"/>
	</g>
</g>
<g>
	<rect x="922.1" y="321.5" class="st2" width="228.4" height="104.8"/>
	<g>
		<path class="st1" d="M1150,322v103.8H922.6V322H1150 M1151,321H921.6v105.8H1151V321L1151,321z"/>
	</g>
</g>
<g>
	<rect y="428" class="st0" width="229.4" height="105.8"/>
</g>
<g>
	<rect x="230.9" y="428.5" class="st3" width="228.4" height="104.8"/>
	<g>
		<path class="st1" d="M458.8,429v103.8H231.4V429H458.8 M459.8,428H230.4v105.8h229.4V428L459.8,428z"/>
	</g>
</g>
<g>
	<rect x="461.3" y="428.5" class="st3" width="228.4" height="104.8"/>
	<g>
		<path class="st1" d="M689.2,429v103.8H461.8V429H689.2 M690.2,428H460.8v105.8h229.4V428L690.2,428z"/>
	</g>
</g>
<g>
	<rect x="691.7" y="428.5" class="st3" width="228.4" height="104.8"/>
	<g>
		<path class="st1" d="M919.6,429v103.8H692.2V429H919.6 M920.6,428H691.2v105.8h229.4V428L920.6,428z"/>
	</g>
</g>
<g>
	<rect x="922.1" y="428.5" class="st3" width="228.4" height="104.8"/>
	<g>
		<path class="st1" d="M1150,429v103.8H922.6V429H1150 M1151,428H921.6v105.8H1151V428L1151,428z"/>
	</g>
</g>
<text transform="matrix(1 0 0 1 30.9114 172.7901)" class="st1 st4 st5">Goal</text>
<text transform="matrix(1 0 0 1 252.067 64.2123)" class="st1 st4 st6">Description</text>
<text transform="matrix(1 0 0 1 247.067 249.2123)"><tspan x="0" y="0" class="st4 st7">Purpose 1. Description</tspan><tspan x="0" y="25.2" class="st4 st7">Purpose 2. Description</tspan><tspan x="0" y="50.4" class="st4 st7">...</tspan></text>
<text transform="matrix(1 0 0 1 247.067 351.2123)"><tspan x="0" y="0" class="st4 st8">Output 1.1 Description</tspan><tspan x="0" y="21" class="st4 st8">Output 1.2 Description</tspan><tspan x="0" y="42" class="st4 st8">Output 2.1 Description</tspan><tspan x="0" y="63" class="st4 st8">...</tspan></text>
<text transform="matrix(1 0 0 1 247.067 452.2123)"><tspan x="0" y="0" class="st4 st9">Activity 1.1.1 Description</tspan><tspan x="0" y="18" class="st4 st9">Activity 1.1.2 Description</tspan><tspan x="0" y="36" class="st4 st9">Activity 1.2.1 Description</tspan><tspan x="0" y="54" class="st4 st9">Activity 2.1.1 Description</tspan><tspan x="0" y="72" class="st4 st9">...</tspan></text>
<text transform="matrix(1 0 0 1 249.3249 168.0941)" class="st4 st10">Goal description</text>
<text transform="matrix(1 0 0 1 513.0647 41.0378)"><tspan x="0" y="0" class="st1 st4 st6">Success</tspan><tspan x="-17.1" y="46.3" class="st1 st4 st6">indicators</tspan></text>
<text transform="matrix(1 0 0 1 732.6774 41.0378)"><tspan x="0" y="0" class="st1 st4 st6">Means of</tspan><tspan x="-16.9" y="46.3" class="st1 st4 st6">verification</tspan></text>
<text transform="matrix(1 0 0 1 931.6649 64.2123)" class="st1 st4 st6">Assumptions</text>
<text transform="matrix(1 0 0 1 30.9116 279.7903)" class="st1 st4 st5">Purposes</text>
<text transform="matrix(1 0 0 1 30.9116 386.7903)" class="st1 st4 st5">Outputs</text>
<text transform="matrix(1 0 0 1 30.9115 493.8127)" class="st1 st4 st5">Activities</text>
</svg>
